<?xml version="1.0" encoding="UTF-8" standalone="no"?>
<svg
   xmlns:svg="http://www.w3.org/2000/svg"
   xmlns="http://www.w3.org/2000/svg"
   xmlns:sodipodi="http://sodipodi.sourceforge.net/DTD/sodipodi-0.dtd"
   xmlns:inkscape="http://www.inkscape.org/namespaces/inkscape"
   id="svg8"
   version="1.1"
   viewBox="0 0 25.399999 25.400001"
   height="96"
   width="96"
   sodipodi:docname="icon.svg"
   inkscape:version="0.92.4 (unknown)">
  <sodipodi:namedview
     pagecolor="#ffffff"
     bordercolor="#666666"
     borderopacity="1"
     objecttolerance="10"
     gridtolerance="10"
     guidetolerance="10"
     inkscape:pageopacity="0"
     inkscape:pageshadow="2"
     inkscape:window-width="1920"
     inkscape:window-height="1016"
     id="namedview9"
     showgrid="false"
     inkscape:zoom="2.4583333"
     inkscape:cx="23.18644"
     inkscape:cy="46.372881"
     inkscape:window-x="0"
     inkscape:window-y="27"
     inkscape:window-maximized="1"
     inkscape:current-layer="svg8" />
  <defs
     id="defs2" />
  <rect
     style="fill:#ffffff;fill-opacity:1;stroke-width:0.26458332"
     id="rect818"
     width="25.4"
     height="25.4"
     x="0"
     y="3.814697e-07" />
  <g
     style="opacity:1"
     transform="translate(0,-271.59998)"
     id="layer1">
    <g
       aria-label="T.co"
       id="text3732">
      <path
         d="m 3.0778487,281.74199 v -1.25573 h 6.1236571 v 1.25573 H 6.9019046 v 6.26836 H 5.3516117 v -6.26836 z"
         style="font-style:normal;font-variant:normal;font-weight:bold;font-stretch:normal;font-family:Roboto;-inkscape-font-specification:'Roboto Bold';fill:#1da1f2;fill-opacity:1;stroke-width:0.26458332"
         id="path4522"
         inkscape:connector-curvature="0" />
      <path
         d="m 8.7312503,287.27137 q 0,-0.34106 0.2273763,-0.56844 0.2325439,-0.23254 0.6201171,-0.23254 0.3875733,0 0.6149493,0.23254 0.227377,0.22738 0.227377,0.56844 0,0.3359 -0.227377,0.56844 -0.227376,0.22738 -0.6149493,0.22738 -0.3875732,0 -0.6201171,-0.22738 -0.2273763,-0.23254 -0.2273763,-0.56844 z"
         style="font-style:normal;font-variant:normal;font-weight:bold;font-stretch:normal;font-family:Roboto;-inkscape-font-specification:'Roboto Bold';fill:#1da1f2;fill-opacity:1;stroke-width:0.26458332"
         id="path4524"
         inkscape:connector-curvature="0" />
      <path
         d="m 14.059091,286.90964 q 0.408243,0 0.671793,-0.22221 0.26355,-0.22738 0.268718,-0.60978 H 16.4052 q -0.01034,0.88883 -0.682128,1.46244 -0.666626,0.57361 -1.638143,0.57361 -1.297079,0 -1.943034,-0.81649 -0.640788,-0.82165 -0.640788,-2.01021 v -0.1447 q 0,-1.18339 0.640788,-2.00504 0.640788,-0.82166 1.937866,-0.82166 1.028361,0 1.669149,0.58911 0.645955,0.58912 0.65629,1.59681 h -1.405598 q -0.0052,-0.40825 -0.248047,-0.69247 -0.24288,-0.28939 -0.697632,-0.28939 -0.656291,0 -0.857829,0.50127 -0.19637,0.49609 -0.19637,1.12137 v 0.1447 q 0,0.64595 0.19637,1.13688 0.201538,0.48576 0.862997,0.48576 z"
         style="font-style:normal;font-variant:normal;font-weight:bold;font-stretch:normal;font-family:Roboto;-inkscape-font-specification:'Roboto Bold';fill:#1da1f2;fill-opacity:1;stroke-width:0.26458332"
         id="path4526"
         inkscape:connector-curvature="0" />
      <path
         d="m 17.025317,285.27149 v -0.10852 q 0,-1.21956 0.692464,-2.03088 0.692465,-0.81649 1.953369,-0.81649 1.276408,0 1.963705,0.81649 0.687296,0.81132 0.687296,2.03088 v 0.10852 q 0,1.21957 -0.687296,2.03089 -0.687297,0.81132 -1.953369,0.81132 -1.27124,0 -1.963705,-0.81132 -0.692464,-0.81132 -0.692464,-2.03089 z m 1.498617,-0.10852 v 0.10852 q 0,0.68213 0.258382,1.16272 0.26355,0.47543 0.89917,0.47543 0.625285,0 0.883667,-0.47543 0.263549,-0.48059 0.263549,-1.16272 v -0.10852 q 0,-0.66662 -0.263549,-1.15238 -0.258382,-0.49093 -0.894003,-0.49093 -0.630452,0 -0.888834,0.49093 -0.258382,0.48576 -0.258382,1.15238 z"
         style="font-style:normal;font-variant:normal;font-weight:bold;font-stretch:normal;font-family:Roboto;-inkscape-font-specification:'Roboto Bold';fill:#1da1f2;fill-opacity:1;stroke-width:0.26458332"
         id="path4528"
         inkscape:connector-curvature="0" />
    </g>
    <path
       id="path3713"
       transform="matrix(0.26458333,0,0,0.26458333,0,271.59998)"
       d="M 48,0 A 47.999998,47.999998 0 0 0 0,48 47.999998,47.999998 0 0 0 48,96 47.999998,47.999998 0 0 0 96,48 47.999998,47.999998 0 0 0 48,0 Z m 0,8 a 39.999998,39.999998 0 0 1 40,40 39.999998,39.999998 0 0 1 -9.046875,25.296875 l -56.25,-56.251953 A 39.999998,39.999998 0 0 1 48,8 Z m -30.953125,14.703125 56.25,56.251953 A 39.999998,39.999998 0 0 1 48,88 39.999998,39.999998 0 0 1 8,48 39.999998,39.999998 0 0 1 17.046875,22.703125 Z"
       style="stroke-width:0.99999994"
       inkscape:connector-curvature="0" />
  </g>
</svg>
